<svg width="2999" height="399" viewBox="0 0 2999 399" fill="none" xmlns="http://www.w3.org/2000/svg">
<path d="M52.3 249.4C52.3 196.7 95.9001 153.5 148.6 153.5C188.1 153.5 222.2 177.7 236.5 212.8L198.1 231.1C190.8 209.5 171.4 194.9 148.7 194.9C119.4 194.9 95.6 219.8 95.6 249.5C95.6 279.9 119.8 304.8 148.7 304.8C171.8 304.8 190.8 289.8 198.1 267.8L236.5 286.1C222.6 321.6 188.2 346.1 148.6 346.1C95.9001 346.1 52.3 302.5 52.3 249.4Z" fill="white"/>
<path d="M370.1 155.3L374.5 198.1H373.4C341.9 198.1 319.2 210.2 310.4 230.7V342H267.2V157.5H310V180.6C323.5 164.5 344.4 155.3 368.9 155.3H370.1Z" fill="white"/>
<path d="M388.1 249.4C388.1 196.7 431.7 153.5 484.8 153.5C537.9 153.5 581.8 197.1 581.8 249.4C581.8 302.5 538.2 346.1 484.8 346.1C431.6 346.1 388.1 302.5 388.1 249.4ZM538.5 249.8C538.5 219.8 514 194.9 484.7 194.9C455.4 194.9 431.2 219.4 431.2 249.5C431.2 279.9 455 304.8 484.7 304.8C514 304.7 538.5 279.8 538.5 249.8Z" fill="white"/>
<path d="M674.4 279.1L716.1 157.6H756.4L797.8 278.8L839.2 157.6H883.9L820.1 342H778L736.3 220.5L694.1 342H652L588.3 157.5H633L674.4 279.1Z" fill="white"/>
<path d="M1035.7 56.5H1078.9V342H1036.4V324.4C1024.3 338.7 1007.1 346 985.9 346C934.6 346 892.2 302.4 892.2 249.7C892.2 197 934.7 153.4 985.9 153.4C1006.8 153.4 1023.6 160.7 1035.7 174.3V56.5ZM1035.7 276.9V222.7C1026.2 205.9 1008.6 194.9 989.2 194.9C959.5 194.9 935.4 219.4 935.4 249.8C935.4 279.8 959.6 304.7 989.2 304.7C1008.6 304.7 1026.2 293.7 1035.7 276.9Z" fill="white"/>
<path d="M1215.2 250.4C1215.2 197.7 1258.8 154.5 1311.5 154.5C1351 154.5 1385.1 178.7 1399.4 213.8L1361 232.1C1353.7 210.5 1334.3 195.9 1311.6 195.9C1282.3 195.9 1258.5 220.8 1258.5 250.5C1258.5 280.9 1282.7 305.8 1311.6 305.8C1334.7 305.8 1353.7 290.8 1361 268.8L1399.4 287.1C1385.5 322.6 1351.1 347.1 1311.5 347.1C1258.8 347.1 1215.2 303.5 1215.2 250.4Z" fill="white"/>
<path d="M1421.3 250.4C1421.3 197.7 1464.9 154.5 1518 154.5C1571.1 154.5 1615 198.1 1615 250.4C1615 303.5 1571.4 347.1 1518 347.1C1464.9 347.1 1421.3 303.5 1421.3 250.4ZM1571.8 250.8C1571.8 220.8 1547.3 195.9 1518 195.9C1488.7 195.9 1464.5 220.4 1464.5 250.5C1464.5 280.9 1488.3 305.8 1518 305.8C1547.3 305.7 1571.8 280.8 1571.8 250.8Z" fill="white"/>
<path d="M1646.8 343V57.5H1690V343H1646.8Z" fill="white"/>
<path d="M1732.1 343V57.5H1775.3V343H1732.1Z" fill="white"/>
<path d="M1992.1 266.5H1853C1858.5 291.4 1877.5 307.1 1904.6 307.1C1924.7 307.1 1941.2 297.9 1951.5 281.8L1983.4 308.5C1966.2 332.7 1938.7 346.6 1906.1 346.6C1850.1 346.6 1808.3 305.6 1808.3 250.7C1808.3 196.1 1848.9 154.4 1901.7 154.4C1953.7 154.4 1994 196.9 1994 248.9C1993.9 254.1 1993.2 260.7 1992.1 266.5ZM1854 230.6H1949.6C1942.6 208.6 1924.7 194.7 1901.3 194.7C1877.8 194.8 1860.6 208.7 1854 230.6Z" fill="white"/>
<path d="M2017.7 250.4C2017.7 197.7 2061.3 154.5 2114 154.5C2153.5 154.5 2187.6 178.7 2201.9 213.8L2163.5 232.1C2156.2 210.5 2136.8 195.9 2114.1 195.9C2084.8 195.9 2061 220.8 2061 250.5C2061 280.9 2085.2 305.8 2114.1 305.8C2137.2 305.8 2156.2 290.8 2163.5 268.8L2201.9 287.1C2188 322.6 2153.6 347.1 2114 347.1C2061.3 347.1 2017.7 303.5 2017.7 250.4Z" fill="white"/>
<path d="M2381.2 327.7C2367.3 340.1 2348.3 347.1 2328.1 347.1C2287.5 347.1 2259.6 319.6 2259.6 279.7V199.5H2215V158.5H2259.7V102.1H2302.9V158.5H2369.9V199.5H2302.9V274.9C2302.9 294.7 2313.5 305.7 2332.2 305.7C2343.2 305.7 2353.1 302 2362.6 293.6L2381.2 327.7Z" fill="white"/>
<path d="M2450.4 343H2407.2V158.5H2450.4V343Z" fill="white"/>
<path d="M2619.6 158.5H2664.6L2591.8 343H2547.5L2474.6 158.5H2519.6L2569.8 285.2L2619.6 158.5Z" fill="white"/>
<path d="M2854.6 266.5H2715.5C2721 291.4 2740 307.1 2767.1 307.1C2787.2 307.1 2803.7 297.9 2814 281.8L2845.9 308.5C2828.7 332.7 2801.2 346.6 2768.6 346.6C2712.6 346.6 2670.8 305.6 2670.8 250.7C2670.8 196.1 2711.4 154.4 2764.2 154.4C2816.2 154.4 2856.5 196.9 2856.5 248.9C2856.4 254.1 2855.7 260.7 2854.6 266.5ZM2716.6 230.6H2812.2C2805.2 208.6 2787.3 194.7 2763.9 194.7C2740.5 194.7 2723.2 208.7 2716.6 230.6Z" fill="white"/>
<path d="M2940.8 296.7H2897.6V343.1H2940.8V296.7Z" fill="white"/>
<path d="M2450.4 73.6H2407.2V120H2450.4V73.6Z" fill="white"/>
</svg>
